<svg xmlns="http://www.w3.org/2000/svg" viewBox="0 0 1747.88 1747.83"><defs><style>.cls-1{fill:#ec2777;}.cls-2{fill:#0b82c3;}.cls-3{fill:#a7499a;}.cls-4{fill:#db2127;}.cls-5{fill:#653413;}.cls-6{fill:#edbd1d;}.cls-7{fill:#eebe1c;}.cls-8{fill:#0882c3;}.cls-9{fill:#b1293c;}.cls-10{fill:#93355f;}.cls-11{fill:#e43b26;}.cls-12{fill:#257694;}.cls-13{fill:#7e4e9b;}.cls-14{fill:#cd1c71;}.cls-15{fill:#fff;}.cls-16{fill:#11663b;}.cls-17{fill:#4d6499;}.cls-18{fill:#12663b;}.cls-19{fill:#ecbe1f;}.cls-20{fill:#f7f9f7;}.cls-21{fill:#f9f9f7;}.cls-22{fill:#fcfdfc;}.cls-23{fill:#f3f5f3;}.cls-24{fill:#dfbb34;}.cls-25{fill:#e2bb32;}.cls-26{fill:#e6be34;}.cls-27{fill:#e1bc35;}.cls-28{fill:#588149;}.cls-29{fill:#5e8565;}.cls-30{fill:#5f8567;}.cls-31{fill:#16673c;}.cls-32{fill:#1f693e;}.cls-33{fill:#377149;}.cls-34{fill:#14663b;}.cls-35{fill:#18673c;}</style></defs><g id="Layer_2" data-name="Layer 2"><g id="Layer_1-2" data-name="Layer 1"><path class="cls-1" d="M1705.1,966.66c-14.32,20.19-34.77,33.56-54,48.15-44.06,33.14-85.25,69.56-126.57,105.84-61.11,53.6-96.29,121-116.34,198.31-15.14,59.19-25.64,119.2-36.69,179.08-2.18,12-4.23,24-9.41,35.18-15.82,25.37-52.24,42.42-90.29,34a1,1,0,0,1-.55-.28c-.13-.27-.27-.41-.41-.68h-.13v-.14a1.07,1.07,0,0,1-.68-1.09,1.51,1.51,0,0,1-.41-1.09,3.12,3.12,0,0,1,.81,1.23c10.64-18.55,13.51-39.28,14.73-60.15,3-45.42-4.5-90-15-133.93-11.18-46.92-26.05-92.75-48.42-135.85-.68.55-1.22,1.23-1.91,1.78-.13-.41-.27-1-.41-1.37-3.27-10.91-10.36-20-14-30.82v-.27l.81-.82c2.32-5.87,7.23-9.82,11.19-14.46,44.6-51.69,78.83-109.25,99.43-174.71,3.27-10.37,4.36-21.55,9.68-31.37a4.19,4.19,0,0,1,.27-1.23,4.87,4.87,0,0,1,1.91-.82.73.73,0,0,1,.55-.27c9.54-1.5,19.09-.68,28.64-.82h2.86c-.27,1.09-.41,2.05-.68,3.14,32,1.63,63.83-2.18,95.47-7,61.52-9.14,121-25.23,176.08-54.83,22.1-11.86,42.42-26.59,56.6-48.14-.68-.14-1.36-.27-1.91-.41,0-.14.28-.41.41-.55a.86.86,0,0,1,.55-.13,4.5,4.5,0,0,1,3.27,0h.14c.13.13.41.27.54.54C1712.61,891.52,1721.2,942.52,1705.1,966.66Z"/><path class="cls-2" d="M1698.42,865.19c-1.77,3.14-3.68,6.14-7.23,7.5a2.64,2.64,0,0,1-1.36.69c-.55,0-1.09-.14-1.64-.14s-1.36-.27-1.91-.41c0-.14.28-.41.41-.55a.86.86,0,0,1,.55-.13c-9.14-11.6-19.37-22.23-31.78-30.28-90-58.78-191.08-75.29-296-77.33.13,1,.4,2,.54,3h-2.18c-9.55.13-19,.82-28.37-.55-.27-.13-.55-.13-.68-.27a6.57,6.57,0,0,1-2.18-1.09c0-.41-.14-.82-.14-1.23-1.5-4.23-3.27-8.32-4.37-12.55-13.77-55.78-38.18-106.79-71.87-153.3-13.5-18.41-28.23-36-42.42-54-.41-.27-.82-.68-1.23-.95a4,4,0,0,1,.28-1.37c2.32-10.77,7.63-20.46,12.14-30.27.13-.41.4-.82.54-1.23.68.54,1.23,1.23,1.91,1.77,11.46-18.41,18.14-39,25.51-59.33,22.36-61.24,37-124.11,38.87-189.72.81-28-6.69-54.14-13.23-80.6a1.14,1.14,0,0,1-1,0l.27-.27a5,5,0,0,1,2-2c8.73-3,17.87-1.23,26.73-1.5,24.42,4.91,46.92,13,61.51,35,10.64,23.46,12.69,48.83,16.64,73.79,11.73,72.28,27.28,143.62,53.2,212.36,13.5,35.59,35,66.42,61.23,94.1,53.47,56.74,113.75,105.3,175.94,151.8,13.1,9.82,26.06,20.19,35.33,34.1C1719.15,809.68,1714.11,837.78,1698.42,865.19Z"/><path class="cls-3" d="M541.85,1204.12a1.9,1.9,0,0,1-.28,1c-2.45,10.78-9.68,19.64-13.09,30.14-.14.55-.41,1.23-.55,1.78-.68-.55-1.22-1.23-1.91-1.78-3.41,7-7.22,13.78-10.23,20.87-24.27,57.29-42,116.48-50.19,178.53-5.72,44.33-5.72,88,10.37,130.53a2.05,2.05,0,0,1,1.23-.27,1,1,0,0,0-.28.54c-3.27,4.91-8.32,5.87-13.5,5.59-31.91-1.63-60.28-10.63-78.29-39.82-9.68-19.78-11-41.6-14.73-62.88-12.95-77.06-27.14-154-56.87-226.81-13.23-32.6-32.87-61.38-56.87-87.15C202.1,1095.83,139,1047.27,75.53,999,63.12,989.58,51.39,979.35,42,966.66c-13.78-34.09-8.73-65.32,13.91-94.1a.49.49,0,0,1,.41-.14c.27-.27.55-.27.68-.41a6.79,6.79,0,0,1,2.87-.13L60,872c.14.14.41.27.55.55a4.19,4.19,0,0,1-1.23.27c13.78,23,35.74,37.37,58.51,49.1,84.56,43.51,175.26,61,269.92,61.24a22.84,22.84,0,0,1-.55-3h2.18c9.55-.14,19.1,0,28.78-.41.27,0,.41.14.55.14h.13l.14.13a6.56,6.56,0,0,1,1.77.55c0,.27.14.54.14.82,1.77,5.31,4.23,10.63,5.45,16.23,11.73,52.23,35.87,98.88,65.2,143.07,14.73,22.37,34.09,40.91,49.51,62.74A3.56,3.56,0,0,0,541.85,1204.12Z"/><path class="cls-4" d="M541.44,542.09c-.28.27-.55.41-.82.68-14.19,17.46-29.05,34.37-42.15,52.65-37,51.14-62.46,107.74-77.74,169a8.44,8.44,0,0,0-.27,1.77c-.14,0-.14.14-.27.14a5.72,5.72,0,0,1-1.5.27c-9.69,2.19-19.51,1-29.33,1.09H387a26.32,26.32,0,0,1,.55-3.13c-78.56-1.91-153.85,14.32-227.22,41.05C121.63,819.64,86.44,839.41,60,872c.14.14.41.27.55.55a4.19,4.19,0,0,1-1.23.27,9.39,9.39,0,0,0-1.91-.14,2.5,2.5,0,0,1-1.09-.27,9.94,9.94,0,0,1-4.77-3.68C36.8,849.1,25.89,806.82,44.3,779c22.91-28,54-46.37,81.56-68.87,54.28-44.06,109-87.56,152.48-142.94,29.33-37.23,44.33-81,57.29-125.48,17.86-61,28.23-123.7,39.68-186,2.46-13.23,3.69-26.87,10.1-39,17.59-30.14,46.64-37.78,78.42-40,4.91-.41,10,.55,12,5.46v.27l.14.14c.14,0,.14.13.14.27a4.21,4.21,0,0,1,.27,1.36c-.41.55-1.23.69-2.46.41-3.41,16-8.45,31.37-10.23,47.74-5.45,48,2.05,94.79,13,141.16,11.18,48.15,26.73,94.93,49.37,139.25.69-.68,1.37-1.22,2.05-1.91a4.56,4.56,0,0,0,.41,1.23c3.14,10.09,9.82,18.82,12.68,29.19v.13A1,1,0,0,1,541.44,542.09Z"/><path class="cls-5" d="M1270.57,1573.05c-13.5,27.28-34.64,45.14-64.38,52.51a27.52,27.52,0,0,1-10.5.55c-1.36-.28-2.59-.82-4-1.23-20.32-2.05-38-11.73-56.6-19.1-66.56-26.87-133.8-51.82-204.59-66-53-10.64-104.33-3.82-155.48,9.55-64.51,16.77-126.16,41.6-187.67,66.69-10.09,4.23-20.32,8.73-31.64,9.28-29.6,3.82-71.61-24.28-78.7-52.92a8.26,8.26,0,0,1,.55-6c.13-.28.27-.41.41-.68s0-.14.13-.28.27.14.41.41c35.6-7.36,67-23.59,95.61-45.42,35.32-27.14,67.92-57.14,95.88-91.79,19.09-23.59,39.83-46,54.28-73a21.49,21.49,0,0,1-2.59-1,7,7,0,0,0,1.37-1.5c6.95-8.32,10.36-19.37,18.82-26.59a.45.45,0,0,1,.27-.14c.14,0,.41.14.55.14,4.22-.41,8,.4,12.13,1.5,65.06,16.64,130.67,20.59,197.09,8.72,17.73-3.13,34.64-9.54,52.78-10.09l1.23-.41a12.85,12.85,0,0,1,1.36,1.23c3.41,3.27,5.32,7.91,7.91,11.87,3.14,4.91,6.14,9.82,9.68,14.32.14.27.41.41.55.68s.27.41.41.54c-.82.28-1.5.55-2.32.82a59.68,59.68,0,0,0,3.27,6.55,709.15,709.15,0,0,0,111.71,128.89c38.18,34.5,79.37,64,131.48,73.78a1.51,1.51,0,0,1-.41-1.09,3.12,3.12,0,0,1,.81,1.23l.28.95v.14h.13c.14.27.28.41.41.68C1272.34,1569,1271.53,1571,1270.57,1573.05Z"/><path class="cls-6" d="M1271.53,181.61a3.26,3.26,0,0,1-.41.68.14.14,0,0,1-.14.14c-.27-.14-.27-.27-.41-.41-42.28,8.87-78.56,29.32-111.29,57-52.65,44.6-99,94.65-136,153l2.45.82c0,.13-.13.13-.13.27a14.17,14.17,0,0,1-1.37,1.64,191.86,191.86,0,0,0-11.59,17.86,48.44,48.44,0,0,1-4.77,7h-.14a5.79,5.79,0,0,1-1.64,1.5,6.8,6.8,0,0,0-1.5-.55c-87.29-24.14-174.58-24.68-261.86.14l-1.23.41a7.61,7.61,0,0,1-1.5-1.5c-1.64-1.91-2.73-4.5-4.09-6.68-4-6.14-7.51-12.69-13.23-17.32-.14-.28-.41-.41-.55-.55a5,5,0,0,0-.68-1.09c.95-.27,1.77-.55,2.73-.82-1.5-3.27-2.73-6.82-4.78-9.82-29.59-43.1-62.33-83.61-101.06-118.79-41.19-37.51-84.15-72-141.16-82.66a4.71,4.71,0,0,1-.28,1.5,1.11,1.11,0,0,1-.68-.68c-.13,0-.13,0-.27-.13l-.14-.14v-.27c-.13-11,6.55-19.1,12.82-26.87,17.05-21.14,39-33.14,66.7-33.55,37.23,8.59,71.06,26.59,106.65,39.55,48.42,17.59,97.11,33.82,147.44,44.87,55.37,12.14,109.66,6.28,163.67-8,62.19-16.5,121.52-40.78,181.12-64,13-5.05,25.64-10.78,39.69-12.14,31.23-1.91,69.56,25.1,77.88,54.83A6.51,6.51,0,0,1,1271.53,181.61Z"/><path class="cls-5" d="M959.81,1659.51c-.15,48.74-39,88.28-86.86,88.32-47.61,0-86.8-40.06-86.57-88.56.24-48.24,38.86-87.47,86.2-87.56C920.62,1571.62,960,1611.23,959.81,1659.51Z"/><path class="cls-4" d="M275.18,478.55c-1.13,49.66-40.24,88.82-87.57,87.67-48.24-1.18-86.93-41.65-85.75-89.68,1.18-47.84,40.43-86.87,86.62-86.14C237.78,391.17,276.27,430.3,275.18,478.55Z"/><path class="cls-7" d="M872.87,175.28c-48.12,0-86.36-38.78-86.18-87.32C786.88,38.6,825.11,0,873.9,0c46.5,0,85.72,39.72,85.84,87C959.86,136.05,921.22,175.31,872.87,175.28Z"/><path class="cls-3" d="M274.91,1268.76c.24,49.33-38.6,89.33-86.31,88.89-47.49-.43-86.85-40.45-86.49-87.94.36-48.43,39-88,86.16-88.27C235.84,1181.21,274.68,1220.36,274.91,1268.76Z"/><path class="cls-8" d="M1472.56,478.14c.27-48.61,40.34-88.94,87.53-88.12,47.7.83,85.54,40.16,85.39,88.74-.16,47.92-39.73,87.8-86.79,87.47C1511.39,565.89,1472.29,525.9,1472.56,478.14Z"/><path class="cls-1" d="M1645.66,1268.52c.06,48.37-38.32,88.5-85.26,89.14-47.82.65-87.88-40.07-87.72-89.18.16-47.31,39.47-87.13,85.91-87C1606.44,1181.58,1645.61,1220.75,1645.66,1268.52Z"/><path class="cls-9" d="M1191.72,1624.91c37.75-4.27,63.56-24.55,78.94-58.82,21.85-.25,43.84,1.51,63.75-11.28,10-6.4,18-15,27.68-21.53-13.92,43.89-35.85,81.33-83.65,94.56A144.13,144.13,0,0,1,1191.72,1624.91Z"/><path class="cls-10" d="M555.76,1625.29c-55.51,15.55-111.84,8.86-143.48-37.1-12.14-17.46-22.92-35.73-27.15-57,15.28,13.91,29.74,29,51.56,32.87,13,2.18,26.05,7.23,39.28,1.09a2.05,2.05,0,0,1,1.23-.27,1.16,1.16,0,0,1,.95.54c.14,0,.27.14.41.41,7.23,27.14,26.87,42.55,51.28,53.33C538,1622.7,546.75,1625.15,555.76,1625.29Z"/><path class="cls-11" d="M555.35,121.74c-10.78,3.41-22,5.86-32.33,10.5-22.23,9.82-37.37,26.87-45.82,49.64a4.71,4.71,0,0,1-.28,1.5,1.22,1.22,0,0,1-.54.82c-.41.55-1.23.69-2.46.41-5-9.68-13.64-4.64-20.45-4.09-27.56,2.59-49.79,15.82-68.06,36.14,18.82-66,60-105.56,127.66-101.61A191.1,191.1,0,0,1,555.35,121.74Z"/><path class="cls-12" d="M1362.22,214.07c-13-9.95-24.55-22.23-41.19-26.46-6.13-1.63-12.27-3.68-18.41-5.45a73.8,73.8,0,0,0-29.46,0l-.54.68a1.14,1.14,0,0,1-1,0,.76.76,0,0,1-.68-.41c-.27-.14-.27-.27-.41-.41-10.37-30.28-32.19-48-62.33-56.33-4.77-1.36-9.55-2.45-14.32-3.68C1275.89,99.91,1334.81,126.24,1362.22,214.07Z"/><path class="cls-13" d="M1689.84,873.44c12.13-19.77,21.49-40.28,19.71-64.42-.72-9.84-5.79-18.81-5-28.83,57.42,60,58,127.32.64,186.51,1.62-12.52,5.25-24.64,5-37.56C1709.8,908,1701.15,890.34,1689.84,873.44Z"/><path class="cls-14" d="M44.25,779c-11,33.38-7.12,64.68,13.11,93.68C52,884.93,44.06,896,40.36,909c-4.23,14.91-2.91,29.7.62,44.41a42.81,42.81,0,0,1,1.07,13.26C-14,906.72-14.78,838.85,44.25,779Z"/><path class="cls-15" d="M1332.76,778.72c-.81-4.09-1.36-8.59-4-12a9.45,9.45,0,0,0-2.32-2.32c0,.41.14.82.14,1.23.41,3.27.68,6.55,1.36,9.68a443,443,0,0,1,9.55,134.07c-2,24.42-6.82,48.42-10.78,72.56a4.19,4.19,0,0,0-.27,1.23,15.56,15.56,0,0,0,2.18-2c2.87-3.41,3.14-7.91,4.09-12.14C1346,905.56,1346.27,842.14,1332.76,778.72ZM1191.33,526.81c-49.24-48.42-107.34-82.65-172.53-105-3.69-1.23-7.23-2.73-10.91-2.18h-.14a9.44,9.44,0,0,0-3.14.95,6.8,6.8,0,0,1,1.5.55c56.47,17.18,107.2,45,154,81,16.5,12.83,30.14,28.51,46.5,41.47.41.27.82.68,1.23.95a11.74,11.74,0,0,0-.95-2.32C1203.6,535.27,1196.51,531.86,1191.33,526.81Zm14.05,677.72c-7,6.54-13.64,13.23-20.6,19.5A475.37,475.37,0,0,1,1006,1326.32l-1.23.41a5.13,5.13,0,0,0,2.59.82c4.09.82,7.91-1.36,11.59-2.59,53.47-17.6,101.89-44.6,145.8-79.79,14.87-11.86,29.6-24.41,40.65-40.37.27-.41.54-.68.81-1.09Zm-26.33-644.44c-114.15-112-251.36-150.71-406.57-114.84C593.13,486.71,461.1,639.6,441.6,823.05c-13,122.2,16.09,234.31,95.34,329,118.38,141.57,270.45,192.72,449.12,147.16,191.63-48.83,320.11-221.77,322.84-432.22C1306.71,753.76,1267,646.42,1179.05,560.09ZM533,923.7c.41-4.91,3.68-8.18,6-11.73,40.1-63.55,80.88-126.57,120-190.67,9.82-16.09,56.06-32.87,73.93-26.87,10.5,3.69,3.41,7.91,1.22,11.32q-40.5,63.42-81.15,126.3c-6.27,9.68-12.27,19.5-19,28.78-5.32,7.64-6.95,11.59,5.32,11.45,89.2-.4,164.62,55,216.59,126C758,930.79,652.73,895.47,533,923.7ZM864.4,971.17c-52.23-64.93-115.93-103.39-195.58-116.89,5.59-9.27,10.64-18,16.1-26.6,24.82-39.68,49.78-79.1,74.47-118.93,3-4.91,5.18-6,10.22-3.27,30.69,16.78,60,35.46,89.75,53.6a12.6,12.6,0,0,1,6.41,11.32C865.36,836,866.72,901.74,864.4,971.17ZM853.77,739.58c-23.19-15.41-46.92-30.28-71.88-42.56-25.23-12.54-35.73-30-28.1-58.23,22.92,7.63,44.06,21,67.24,29.73,2.87,2.59,6,4.36,10.37,3.82-1.64-4-4.64-5.05-7.64-6.14C784.48,642.47,745.2,618.87,705.92,595c-13.23-8-13.23-10.1.27-17,50.74-26.05,101.48-51.69,152.08-77.74,10.77-5.46,20.86-5.32,31.5.13,51.42,26.46,102.84,52.65,154.26,79,10.23,5.18,10.09,8.32-.41,14.73-41,24.82-82.24,49.37-123.3,74.06-3.13,1.09-6.54,1.77-8.45,6.41,3.82-1.36,7-.68,8.45-3.82,25-10.91,49.92-21.68,76.24-33.14,0,10.36.41,19.37-.13,28.23-.55,8.59-4.37,15.55-12.14,20.19-30.82,18.14-61.51,36.14-91.93,54.69C878.86,748.85,867.41,748.58,853.77,739.58ZM882.14,951c-.41-57.56-.69-115.11-1.64-172.67-.14-11.86,4.09-18.27,14.59-24C921,740.12,946.24,724.85,971.2,709c9.27-5.87,15.55-6.41,19.09,4.5,6.41,19.91,22.23,33.55,32.33,51,17.32,30.14,36.27,59.33,55.37,90.15-80.06,13.09-142.94,52.65-194.9,115C882.68,961.89,882.27,956.44,882.14,951Zm145.8-230.91c-6.69-4-13-8-20.19,2.6,0-31-.27-58.24.14-85.52.13-6.55,6.41-9.68,20.05-12ZM888.82,1000.63c12.27-19.51,25.37-33.28,39.14-46.51,42.69-41.33,91.11-72.29,151.67-80.2a214.42,214.42,0,0,1,28.23-1.77c9.55,0,11.45-2,5.59-10.78-25.09-37.91-49.51-76.24-74.47-114.43-3.82-5.86-7.09-10.23-.13-17.32,6.41-6.27,3-16.5,2.72-25-.13-7.64,1.23-10.36,9.41-7.36,17.33,6.41,31.51,14.86,41.88,31.64,37.64,61.65,76.65,122.34,115.24,183.31,2.19,3.41,4.23,7,7.23,11.86C1094.08,895.47,989.34,931.89,888.82,1000.63ZM742.2,1326.46c-77.2-23.87-143.07-65.88-200.35-122.34a3.56,3.56,0,0,1-.82-.68,7.42,7.42,0,0,0,.54,1.63c1.23,3.82,4.23,6.55,7.09,9.28,45.83,44.6,98.2,79.24,157.81,102.56,11.32,4.37,22.5,10.78,35.46,9.69h.82C742.61,1326.6,742.34,1326.46,742.2,1326.46ZM420.73,980.58c-4.77-27.14-10-54.15-11.18-81.84-2.05-44.73,2-88.79,10.91-132.57a8.44,8.44,0,0,1,.27-1.77,10,10,0,0,0-2,2.18c-2.6,3.55-3.28,7.91-4.1,12.14-12.27,64.24-12.82,128.34,1,192.31.68,3.27.54,6.82,3.14,8.87h.13l.14.13a6.69,6.69,0,0,0,1.91,1.37C420.87,981.12,420.73,980.85,420.73,980.58ZM740,419.61c-4.37-1.09-8.46,1.09-12.69,2.45-60.83,20.33-115,52.38-162.44,95.34-8.45,7.64-19.5,12.41-23.73,23.87v.13a5.57,5.57,0,0,0-.54,1.37c.27-.27.54-.41.82-.68,2.86-2.32,5.86-4.5,8.59-7.1,54.83-53.19,118-92.19,191.49-113.88l1.23-.41A14.47,14.47,0,0,0,740,419.61Zm439,140.48c-114.15-112-251.36-150.71-406.57-114.84C593.13,486.71,461.1,639.6,441.6,823.05c-13,122.2,16.09,234.31,95.34,329,118.38,141.57,270.45,192.72,449.12,147.16,191.63-48.83,320.11-221.77,322.84-432.22C1306.71,753.76,1267,646.42,1179.05,560.09ZM533,923.7c.41-4.91,3.68-8.18,6-11.73,40.1-63.55,80.88-126.57,120-190.67,9.82-16.09,56.06-32.87,73.93-26.87,10.5,3.69,3.41,7.91,1.22,11.32q-40.5,63.42-81.15,126.3c-6.27,9.68-12.27,19.5-19,28.78-5.32,7.64-6.95,11.59,5.32,11.45,89.2-.4,164.62,55,216.59,126C758,930.79,652.73,895.47,533,923.7ZM864.4,971.17c-52.23-64.93-115.93-103.39-195.58-116.89,5.59-9.27,10.64-18,16.1-26.6,24.82-39.68,49.78-79.1,74.47-118.93,3-4.91,5.18-6,10.22-3.27,30.69,16.78,60,35.46,89.75,53.6a12.6,12.6,0,0,1,6.41,11.32C865.36,836,866.72,901.74,864.4,971.17ZM853.77,739.58c-23.19-15.41-46.92-30.28-71.88-42.56-25.23-12.54-35.73-30-28.1-58.23,22.92,7.63,44.06,21,67.24,29.73,2.87,2.59,6,4.36,10.37,3.82-1.64-4-4.64-5.05-7.64-6.14C784.48,642.47,745.2,618.87,705.92,595c-13.23-8-13.23-10.1.27-17,50.74-26.05,101.48-51.69,152.08-77.74,10.77-5.46,20.86-5.32,31.5.13,51.42,26.46,102.84,52.65,154.26,79,10.23,5.18,10.09,8.32-.41,14.73-41,24.82-82.24,49.37-123.3,74.06-3.13,1.09-6.54,1.77-8.45,6.41,3.82-1.36,7-.68,8.45-3.82,25-10.91,49.92-21.68,76.24-33.14,0,10.36.41,19.37-.13,28.23-.55,8.59-4.37,15.55-12.14,20.19-30.82,18.14-61.51,36.14-91.93,54.69C878.86,748.85,867.41,748.58,853.77,739.58ZM882.14,951c-.41-57.56-.69-115.11-1.64-172.67-.14-11.86,4.09-18.27,14.59-24C921,740.12,946.24,724.85,971.2,709c9.27-5.87,15.55-6.41,19.09,4.5,6.41,19.91,22.23,33.55,32.33,51,17.32,30.14,36.27,59.33,55.37,90.15-80.06,13.09-142.94,52.65-194.9,115C882.68,961.89,882.27,956.44,882.14,951Zm145.8-230.91c-6.69-4-13-8-20.19,2.6,0-31-.27-58.24.14-85.52.13-6.55,6.41-9.68,20.05-12ZM888.82,1000.63c12.27-19.51,25.37-33.28,39.14-46.51,42.69-41.33,91.11-72.29,151.67-80.2a214.42,214.42,0,0,1,28.23-1.77c9.55,0,11.45-2,5.59-10.78-25.09-37.91-49.51-76.24-74.47-114.43-3.82-5.86-7.09-10.23-.13-17.32,6.41-6.27,3-16.5,2.72-25-.13-7.64,1.23-10.36,9.41-7.36,17.33,6.41,31.51,14.86,41.88,31.64,37.64,61.65,76.65,122.34,115.24,183.31,2.19,3.41,4.23,7,7.23,11.86C1094.08,895.47,989.34,931.89,888.82,1000.63Zm290.23-440.54c-114.15-112-251.36-150.71-406.57-114.84C593.13,486.71,461.1,639.6,441.6,823.05c-13,122.2,16.09,234.31,95.34,329,118.38,141.57,270.45,192.72,449.12,147.16,191.63-48.83,320.11-221.77,322.84-432.22C1306.71,753.76,1267,646.42,1179.05,560.09ZM533,923.7c.41-4.91,3.68-8.18,6-11.73,40.1-63.55,80.88-126.57,120-190.67,9.82-16.09,56.06-32.87,73.93-26.87,10.5,3.69,3.41,7.91,1.22,11.32q-40.5,63.42-81.15,126.3c-6.27,9.68-12.27,19.5-19,28.78-5.32,7.64-6.95,11.59,5.32,11.45,89.2-.4,164.62,55,216.59,126C758,930.79,652.73,895.47,533,923.7ZM864.4,971.17c-52.23-64.93-115.93-103.39-195.58-116.89,5.59-9.27,10.64-18,16.1-26.6,24.82-39.68,49.78-79.1,74.47-118.93,3-4.91,5.18-6,10.22-3.27,30.69,16.78,60,35.46,89.75,53.6a12.6,12.6,0,0,1,6.41,11.32C865.36,836,866.72,901.74,864.4,971.17ZM853.77,739.58c-23.19-15.41-46.92-30.28-71.88-42.56-25.23-12.54-35.73-30-28.1-58.23,22.92,7.63,44.06,21,67.24,29.73,2.87,2.59,6,4.36,10.37,3.82-1.64-4-4.64-5.05-7.64-6.14C784.48,642.47,745.2,618.87,705.92,595c-13.23-8-13.23-10.1.27-17,50.74-26.05,101.48-51.69,152.08-77.74,10.77-5.46,20.86-5.32,31.5.13,51.42,26.46,102.84,52.65,154.26,79,10.23,5.18,10.09,8.32-.41,14.73-41,24.82-82.24,49.37-123.3,74.06-3.13,1.09-6.54,1.77-8.45,6.41,3.82-1.36,7-.68,8.45-3.82,25-10.91,49.92-21.68,76.24-33.14,0,10.36.41,19.37-.13,28.23-.55,8.59-4.37,15.55-12.14,20.19-30.82,18.14-61.51,36.14-91.93,54.69C878.86,748.85,867.41,748.58,853.77,739.58ZM882.14,951c-.41-57.56-.69-115.11-1.64-172.67-.14-11.86,4.09-18.27,14.59-24C921,740.12,946.24,724.85,971.2,709c9.27-5.87,15.55-6.41,19.09,4.5,6.41,19.91,22.23,33.55,32.33,51,17.32,30.14,36.27,59.33,55.37,90.15-80.06,13.09-142.94,52.65-194.9,115C882.68,961.89,882.27,956.44,882.14,951Zm145.8-230.91c-6.69-4-13-8-20.19,2.6,0-31-.27-58.24.14-85.52.13-6.55,6.41-9.68,20.05-12ZM888.82,1000.63c12.27-19.51,25.37-33.28,39.14-46.51,42.69-41.33,91.11-72.29,151.67-80.2a214.42,214.42,0,0,1,28.23-1.77c9.55,0,11.45-2,5.59-10.78-25.09-37.91-49.51-76.24-74.47-114.43-3.82-5.86-7.09-10.23-.13-17.32,6.41-6.27,3-16.5,2.72-25-.13-7.64,1.23-10.36,9.41-7.36,17.33,6.41,31.51,14.86,41.88,31.64,37.64,61.65,76.65,122.34,115.24,183.31,2.19,3.41,4.23,7,7.23,11.86C1094.08,895.47,989.34,931.89,888.82,1000.63Z"/><path class="cls-15" d="M1360,767.54c-.14-1-.41-2-.54-3a7.18,7.18,0,0,0-1.64,3c-2,4.77.27,9.82,1.09,14.73,10.37,60.14,12.82,120.29.55,180.58-1.1,5.59-2.46,11.45-.69,17.18a15.7,15.7,0,0,0,1.23,3.14c.27-1.09.41-2,.68-3.14C1375.45,909.25,1374.09,838.32,1360,767.54Zm327.2,104.61a.86.86,0,0,0-.55.13c-.13.14-.41.41-.41.55.55.14,1.23.27,1.91.41A6.61,6.61,0,0,0,1687.24,872.15Z"/><path class="cls-15" d="M1219.42,1235.62c-5.31,1.1-9.13,5.19-13.09,8.87-5,4.64-9.82,9.68-15.14,14.18-46.51,40-99.56,68.47-156.57,90.16-3.41,1.22-7.37,1.91-9.69,4.91a7.64,7.64,0,0,0-1.36,2c.82-.27,1.5-.54,2.32-.82q110.07-37.64,193.94-117.84V1237c.69-.55,1.23-1.23,1.91-1.78A7,7,0,0,0,1219.42,1235.62Zm50.2,328.29a1.51,1.51,0,0,0,.41,1.09.48.48,0,0,0,.4.14A3.12,3.12,0,0,0,1269.62,1563.91Z"/><path class="cls-16" d="M1221.74,1235.21c-.68.55-1.22,1.23-1.91,1.78v.13q-83.67,80.4-193.94,117.84c-.82.28-1.5.55-2.32.82-8.59-8.18-13.23-19-18.82-29l1.23-.41A475.37,475.37,0,0,0,1184.78,1224c7-6.27,13.64-13,20.6-19.5l.81-.82A99.9,99.9,0,0,1,1221.74,1235.21Z"/><path class="cls-16" d="M1360.72,980c-.27,1.09-.41,2.05-.68,3.14h-33.55a4.19,4.19,0,0,1,.27-1.23c4-24.14,8.73-48.14,10.78-72.56A443,443,0,0,0,1328,775.31c-.68-3.13-1-6.41-1.36-9.68,0-.41-.14-.82-.14-1.23,11,0,22,.14,33,.14.13,1,.4,2,.54,3C1374.09,838.32,1375.45,909.25,1360.72,980Z"/><path class="cls-15" d="M1271.93,182.57a1.87,1.87,0,0,1-.81-.28,1,1,0,0,1-.55-.27c.14.14.14.27.41.41a.76.76,0,0,0,.68.41,1.14,1.14,0,0,0,1,0C1272.34,182.84,1272.21,182.7,1271.93,182.57Zm-52.37,328.15c-55.92-53.47-120.7-92.34-193.81-117.84l-2.45-.82a7,7,0,0,0,1,2.73c1.78,2.86,5.32,3.27,8.19,4.22A501.55,501.55,0,0,1,1207,503.76c3.69,3.14,7.23,6.69,12,8.19a16.27,16.27,0,0,0,2.45.54C1220.79,512,1220.24,511.26,1219.56,510.72Z"/><path class="cls-16" d="M1221.47,512.49c-4.5,10.78-9.14,21.41-13.64,32-.41-.27-.82-.68-1.23-.95-16.36-13-30-28.64-46.5-41.47-46.79-36-97.52-63.83-154-81a6.8,6.8,0,0,0-1.5-.55c6.28-9.54,10.23-20.45,18.69-28.5l2.45.82c73.11,25.5,137.89,64.37,193.81,117.84C1220.24,511.26,1220.79,512,1221.47,512.49Z"/><path class="cls-17" d="M1273.16,182.1a39.49,39.49,0,0,1,29.46,0Z"/><path class="cls-15" d="M60,872c-.27.27-.41.55-.68.82a4.19,4.19,0,0,0,1.23-.27C60.39,872.28,60.12,872.15,60,872Zm328,89.75c-5.46-32.74-9.82-65.74-8.46-99,1.23-27.69,4-55.51,9.55-82.93.82-3.95,1.91-8.18.27-12.14a8,8,0,0,0-1.77-3.13,26.32,26.32,0,0,0-.55,3.13,536.07,536.07,0,0,0,.14,212.5,22.84,22.84,0,0,0,.55,3,16.74,16.74,0,0,0,1.63-3C391.82,974,389.09,967.89,388,961.76Z"/><path class="cls-15" d="M478.15,1565.41a1.16,1.16,0,0,0-.95-.54,2.05,2.05,0,0,0-1.23.27,2.62,2.62,0,0,1,.95.27,3.19,3.19,0,0,1,1.1.28c.13,0,.4.13.54.13C478.42,1565.55,478.29,1565.41,478.15,1565.41Zm245-212.22c-2.46-3.55-6.82-4-10.64-5.18-66.15-23.46-125.34-58.65-175.94-107.48-2.32-2.31-4.64-5-8-5.32a5.08,5.08,0,0,0-2.46,0c.69.55,1.23,1.23,1.91,1.78,13.64,12.41,26.6,25.37,41.19,36.55,46.51,35.46,97.11,62.74,152.62,81.15a21.49,21.49,0,0,0,2.59,1A6.92,6.92,0,0,0,723.11,1353.19Z"/><path class="cls-16" d="M742.75,1326.6a117.9,117.9,0,0,1-18.42,29.05,21.49,21.49,0,0,1-2.59-1c-55.51-18.41-106.11-45.69-152.62-81.15-14.59-11.18-27.55-24.14-41.19-36.55-.68-.55-1.22-1.23-1.91-1.78,2.73-11.59,10-21.27,15-31.77a3.56,3.56,0,0,0,.82.68c57.28,56.46,123.15,98.47,200.35,122.34C742.34,1326.46,742.61,1326.6,742.75,1326.6Z"/><path class="cls-16" d="M420.87,981.4c-10.91,4.5-22.1,1.63-33.14,1.77a22.84,22.84,0,0,1-.55-3,536.07,536.07,0,0,1-.14-212.5,26.32,26.32,0,0,1,.55-3.13c11.05,0,22.09-.14,33.14-.14a8.44,8.44,0,0,0-.27,1.77c-8.87,43.78-13,87.84-10.91,132.57,1.23,27.69,6.41,54.7,11.18,81.84C420.73,980.85,420.87,981.12,420.87,981.4Z"/><path class="cls-15" d="M476.24,182.7a.13.13,0,0,0-.13.14,24.28,24.28,0,0,0-2.19,1.77c1.23.28,2.05.14,2.46-.41a1.22,1.22,0,0,0,.54-.82,4.71,4.71,0,0,0,.28-1.5C476.92,182.16,476.51,182.43,476.24,182.7ZM721.47,394a297.33,297.33,0,0,0-40.1,14.18c-57.56,24.69-107.61,60.29-153.3,102.7-.68.69-1.36,1.23-2.05,1.91a16.11,16.11,0,0,0,2.46-.68c9.82-2.73,15.68-11.32,22.78-17.46,48.14-41.87,101.47-74.33,161.89-95.2,3.14-1.09,7.23-1.09,9.55-3.81a5.47,5.47,0,0,0,1.5-2.46C723.24,393.42,722.42,393.7,721.47,394Z"/><path class="cls-16" d="M742.75,420.7l-1.23.41C668,442.8,604.86,481.8,550,535c-2.73,2.6-5.73,4.78-8.59,7.1-.28.27-.55.41-.82.68-6.41-9.28-11.6-19.1-14.6-30,.69-.68,1.37-1.22,2.05-1.91,45.69-42.41,95.74-78,153.3-102.7A297.33,297.33,0,0,1,721.47,394c.95-.27,1.77-.55,2.73-.82C734,399.83,737.84,410.61,742.75,420.7Z"/><path class="cls-18" d="M1179.05,560.09c-114.15-112-251.36-150.71-406.57-114.84C593.13,486.71,461.1,639.6,441.6,823.05c-13,122.2,16.09,234.31,95.34,329,118.38,141.57,270.45,192.72,449.12,147.16,191.63-48.83,320.11-221.77,322.84-432.22C1306.71,753.76,1267,646.42,1179.05,560.09ZM533,923.7c.41-4.91,3.68-8.18,6-11.73,40.1-63.55,80.88-126.57,120-190.67,9.82-16.09,56.06-32.87,73.93-26.87,10.5,3.69,3.41,7.91,1.22,11.32q-40.5,63.42-81.15,126.3c-6.27,9.68-12.27,19.5-19,28.78-5.32,7.64-6.95,11.59,5.32,11.45,89.2-.4,164.62,55,216.59,126C758,930.79,652.73,895.47,533,923.7ZM864.4,971.17c-52.23-64.93-115.93-103.39-195.58-116.89,5.59-9.27,10.64-18,16.1-26.6,24.82-39.68,49.78-79.1,74.47-118.93,3-4.91,5.18-6,10.22-3.27,30.69,16.78,60,35.46,89.75,53.6a12.6,12.6,0,0,1,6.41,11.32C865.36,836,866.72,901.74,864.4,971.17ZM853.77,739.58c-23.19-15.41-46.92-30.28-71.88-42.56-25.23-12.54-35.73-30-28.1-58.23,22.92,7.63,44.06,21,67.24,29.73,2.87,2.59,6,4.36,10.37,3.82-1.64-4-4.64-5.05-7.64-6.14C784.48,642.47,745.2,618.87,705.92,595c-13.23-8-13.23-10.1.27-17,50.74-26.05,101.48-51.69,152.08-77.74,10.77-5.46,20.86-5.32,31.5.13,51.42,26.46,102.84,52.65,154.26,79,10.23,5.18,10.09,8.32-.41,14.73-41,24.82-82.24,49.37-123.3,74.06-3.13,1.09-6.54,1.77-8.45,6.41,3.82-1.36,7-.68,8.45-3.82,25-10.91,49.92-21.68,76.24-33.14,0,10.36.41,19.37-.13,28.23-.55,8.59-4.37,15.55-12.14,20.19-30.82,18.14-61.51,36.14-91.93,54.69C878.86,748.85,867.41,748.58,853.77,739.58ZM882.14,951c-.41-57.56-.69-115.11-1.64-172.67-.14-11.86,4.09-18.27,14.59-24C921,740.12,946.24,724.85,971.2,709c9.27-5.87,15.55-6.41,19.09,4.5,6.41,19.91,22.23,33.55,32.33,51,17.32,30.14,36.27,59.33,55.37,90.15-80.06,13.09-142.94,52.65-194.9,115C882.68,961.89,882.27,956.44,882.14,951Zm145.8-230.91c-6.69-4-13-8-20.19,2.6,0-31-.27-58.24.14-85.52.13-6.55,6.41-9.68,20.05-12ZM888.82,1000.63c12.27-19.51,25.37-33.28,39.14-46.51,42.69-41.33,91.11-72.29,151.67-80.2a214.42,214.42,0,0,1,28.23-1.77c9.55,0,11.45-2,5.59-10.78-25.09-37.91-49.51-76.24-74.47-114.43-3.82-5.86-7.09-10.23-.13-17.32,6.41-6.27,3-16.5,2.72-25-.13-7.64,1.23-10.36,9.41-7.36,17.33,6.41,31.51,14.86,41.88,31.64,37.64,61.65,76.65,122.34,115.24,183.31,2.19,3.41,4.23,7,7.23,11.86C1094.08,895.47,989.34,931.89,888.82,1000.63Z"/><path class="cls-15" d="M831.4,672.34c-4.37.54-7.5-1.23-10.37-3.82,3.82.41,3.82.41,2.73-2.32C826.76,667.29,829.76,668.38,831.4,672.34Z"/><path class="cls-15" d="M918.41,671.25a3.91,3.91,0,0,1,1.91-.55c-1.5,3.14-4.63,2.46-8.45,3.82,1.91-4.64,5.32-5.32,8.45-6.41C919.91,669.34,918.14,669.61,918.41,671.25Z"/><path class="cls-19" d="M860.37,1090.05c-2,14.28-4.27,27.93.74,41.39,2,5.28-1.85,6.61-5.3,7.7-19,6-43.22,3.95-55.06-19.17-10.76-21-3.78-47.41,15.58-58.09,5.48-3,11.39-5,17.69-4,7.67,1.18,15.31,5.21,21.16-4.51,1.58-2.63,7.17-1.35,9.45,2.38,2.4,3.93,2.17,8-1.73,11-5.46,4.15-11.34,3.66-17.5,1.32-10.55-4-21.07-5.37-29.21,4.68-9.86,12.17-12,25.69-5.44,40.24,5.16,11.38,12.43,20.67,25.8,21.94,7,.67,14.77.77,10.68-11-1.67-4.82-.44-10.59-.87-15.9-.26-3.21,1.94-8.41-4.14-8.18-3.71.14-9.49-6.1-11.17,3.15-.54,2.94-3.93,4.22-7,2-3.22-2.35-4.76-5.69-3.67-9.63,2.09-7.52,8.12-9.21,14.56-7.9A123.67,123.67,0,0,0,860.37,1090.05Z"/><path class="cls-19" d="M685,1089.09c-5.38,14.54-5.34,27.55-1.16,40.23,1.68,5.11,1.21,7.88-3.63,9.43-15,4.79-30.1,5.8-43.44-4.14-15.38-11.44-20.28-27.76-16.62-45.95,3.14-15.57,12.72-26.47,29-29.8a32.32,32.32,0,0,1,12.15-.39c6,1.13,11.46,3.91,15.42-4.2,1.6-3.28,6.88-2.91,9.7.27,3.39,3.84,3.41,8.43-.44,12.06s-8.73,3.51-13.87,2.27c-22.43-5.44-29-3.76-36.33,8.74-8.32,14.09-5.61,36,5.84,48.06,3.46,3.64,7.33,6.67,12.17,8,13,3.61,16.94.12,15.73-13.14-.45-4.87.05-9.84.33-14.75.17-2.93.86-6.75-3.37-6.1-3.58.55-7.45-5.44-10.58.54-1.74,3.32-3.53,6.81-8.35,4.84-3.2-1.3-3.59-4.15-3.79-7.12-.33-4.68,1.84-8.25,5.93-9.8a16,16,0,0,1,9.64-.68C667.3,1089.88,675.37,1090.07,685,1089.09Z"/><path class="cls-20" d="M990.43,1058.32v30.53c19.41-7.67,28.9-6.14,35.27,5,7.37,12.85,3.43,32.89-8.25,42.67-6.14,5.14-13,5.32-20.72,5.14-15.68-.38-21-5.36-16.27-21.93,3-10.66.75-22.83.82-34.32,0-2.46,1-5.83-.29-7.24C970,1065.68,984.55,1064.14,990.43,1058.32Z"/><path class="cls-20" d="M1040.81,1122.41c.16-3.26-.26-6.78,2-9.44,4.4-5.15,6.78-8.93.22-15.38-4.76-4.67,1-9.74,5.82-12.32,11.09-5.89,25-.45,32.26,12.08,6.8,11.76,5.86,25.39,9.29,38,1.06,3.89-2.74,6.26-4.88,4.73-7.52-5.4-13.49.55-20.13,1.51C1051.69,1143.53,1041,1135.1,1040.81,1122.41Z"/><path class="cls-20" d="M937.58,1141.62c-16.93.14-29.55-11.48-29.84-27.5-.33-17.56,11.31-30.48,27.91-31,17-.51,30.8,12.21,30.77,28.28C966.39,1128.72,954.19,1141.49,937.58,1141.62Z"/><path class="cls-21" d="M697.77,1111.71c.2-16.71,12.2-28.6,28.91-28.65s28.76,12.56,28.59,30.25c-.17,16.88-12.87,28.7-30.42,28.31C708.25,1141.24,697.55,1129.43,697.77,1111.71Z"/><path class="cls-22" d="M1117.56,1055.17c0,24.45,0,45.34,0,66.24a70.58,70.58,0,0,0,.78,12.17c.39,2.17,3.26,4.38-.28,6a14,14,0,0,1-10.8-.09c-3.72-1.42-.94-3.63-.64-5.81,2.48-18.34,4.32-37.86-.26-54.85C1102.68,1065,1110.33,1063.68,1117.56,1055.17Z"/><path class="cls-23" d="M891.38,1058.23c0,13.31-.38,26.63.1,39.92s-2.77,27,2.79,40.31c-5.13,2.43-10.15,1.51-14.84.57,3.84-20.56,5.34-41.54.43-60C876.18,1065.13,884.57,1064.16,891.38,1058.23Z"/><path class="cls-24" d="M1033.69,1187.29c.57-11.4,9.83-23.72,17.64-23.46,7.38.23,14.64,11.11,14.38,21.53-.28,11.64-8.49,22.45-16.9,22.26S1033.16,1197.81,1033.69,1187.29Z"/><path class="cls-25" d="M1007.72,1200.19c4.72-.71,8.31-1.46,11.94-1.71,2.07-.14,5.55-1.26,5,2.87-.33,2.68-.86,6-5.17,5.25-2.82-.48-5.76-.35-8.5-1-3.83-1-8.93,4.39-11-.38-2.24-5.07,3.3-8.63,6.35-12.3,3.66-4.39,7.83-8.39,11.25-12.95,2.13-2.84,1.68-6.18-.87-9-2.25-2.5-5.1-2.66-7.91-1.85a6,6,0,0,0-3.5,3.09c-1,2.74.63,3.3,3.21,3.1,4.32-.33,3.21,2.9,2.29,4.78-1.49,3-4.09,3.75-7.14,1.67s-5.37-4.46-4-8.13c2.17-5.69,6-10,12.71-9.78,5.1.19,9.57,2.19,11.67,7.49,2.58,6.53.74,12.11-4.1,16.7C1016.18,1191.57,1010.85,1193.56,1007.72,1200.19Z"/><path class="cls-26" d="M1115.36,1175.33c7.89,4.63,8.48,11.14,5.39,19-3.24,8.25-9.73,11.87-17.79,13.2-3.92.65-7.32-1.37-9.27-4.81-1.2-2.13-1.55-5.1,1-6.53,2.15-1.2,5.75-1.23,6,1.85.53,7.18,4.52,5.56,8.13,3.51,6.23-3.54,7.33-9.64,6.06-16.06-.89-4.49-4.83-6.29-8.51-4.38-14,7.27-6.95-5.06-8.28-9-.89-2.62-.06-5.86,4-6.15,5.88-.43,12.31-2.41,17.43-.63,2.94,1-.51,5.33-4.21,6.1-1,.59-2.78,1.14-2.81,1.53C1112.31,1174.88,1114.56,1174.28,1115.36,1175.33Z"/><path class="cls-27" d="M1085.64,1164.88c-.87,13.64-5.08,25.94-.53,38.17.72,2-2.33,2.91-4.3,3.33-2.74.58-3.51-1.81-4.12-3.48-1.88-5.11-1.12-10.39-.31-15.61.5-3.18,2.58-7.55,1.23-9.33C1070.12,1168.06,1078.46,1168.07,1085.64,1164.88Z"/><path class="cls-28" d="M1115.36,1175.33c-4-.54-8.52,1.85-13.41-1.83,4.81-3.91,9.21-2.06,13.32-2Z"/><path class="cls-29" d="M920.32,668.11v2.59c-1.5,3.14-4.63,2.46-8.45,3.82C913.78,669.88,917.19,669.2,920.32,668.11Z"/><path class="cls-30" d="M831.4,672.34c-4.37.54-7.5-1.23-10.37-3.82,1-.82,1.78-1.5,2.73-2.32C826.76,667.29,829.76,668.38,831.4,672.34Z"/><path class="cls-31" d="M990.43,1114.57c.41-4.07.46-8.22,1.33-12.19,1.52-6.9,6.61-10.24,13.25-10.86,6.93-.64,10.41,3.9,12.34,9.8,2.95,9,2.37,17.8-2.46,26-3.6,6.14-9,9.93-16.3,8.3-7.1-1.57-7.53-7.77-7.72-13.68-.07-2.46,0-4.92,0-7.38Z"/><path class="cls-32" d="M1064.56,1106.87c8.89,1.3,14,5.42,14.11,13.72.07,8.92-6.5,12.45-13.85,12.51-8.35.07-14.06-4.87-13.74-13.93S1058.41,1108.41,1064.56,1106.87Z"/><path class="cls-33" d="M1073.87,1100.59c-11.7,3.82-16.71-1.36-18.66-11.76C1064.26,1088.24,1069.39,1093.23,1073.87,1100.59Z"/><path class="cls-34" d="M958.64,1115.34A18.41,18.41,0,0,1,941.33,1134c-12.27.67-25.12-11.57-25.87-24.64-.6-10.4,7.41-18.65,18.24-18.79C944.94,1090.44,958.25,1103.66,958.64,1115.34Z"/><path class="cls-34" d="M705.27,1107.83c.2-10.48,6.29-16.18,17.23-16.14,14.35.06,25.49,10.63,25.52,24.2,0,11.27-7.37,18.36-18.62,17.85A25.37,25.37,0,0,1,705.27,1107.83Z"/><path class="cls-35" d="M1059.08,1187.23c-.5,7-.54,15.64-9,15.1-9.27-.59-8.1-10-9.69-17.16-2.17-9.68,9.45-9.19,10.37-16.08C1059.79,1172.5,1057.78,1180.78,1059.08,1187.23Z"/></g></g></svg>